Coordinates
version=1
nRows=4
nColumns=63
inDegrees=yes

Units are S.I. units (second, meters, Newtons, ...)
If the header above contains a line with 'inDegrees', this indicates whether rotational values are in degrees (yes) or radians (no).

endheader
time	pelvis_tilt	pelvis_list	pelvis_rotation	pelvis_tx	pelvis_ty	pelvis_tz	hip_flexion_r	hip_adduction_r	hip_rotation_r	knee_angle_r	knee_angle_r_beta	ankle_angle_r	subtalar_angle_r	mtp_angle_r	hip_flexion_l	hip_adduction_l	hip_rotation_l	knee_angle_l	knee_angle_l_beta	ankle_angle_l	subtalar_angle_l	mtp_angle_l	L5_S1_Flex_Ext	L5_S1_Lat_Bending	L5_S1_axial_rotation	L4_L5_Flex_Ext	L4_L5_Lat_Bending	L4_L5_axial_rotation	L3_L4_Flex_Ext	L3_L4_Lat_Bending	L3_L4_axial_rotation	L2_L3_Flex_Ext	L2_L3_Lat_Bending	L2_L3_axial_rotation	L1_L2_Flex_Ext	L1_L2_Lat_Bending	L1_L2_axial_rotation	L1_T12_Flex_Ext	L1_T12_Lat_Bending	L1_T12_axial_rotation	Abs_r3	Abs_r2	Abs_r1	Abs_t1	Abs_t2	neck_flexion	neck_bending	neck_rotation	arm_flex_r	arm_add_r	arm_rot_r	elbow_flex_r	pro_sup_r	wrist_flex_r	wrist_dev_r	arm_flex_l	arm_add_l	arm_rot_l	elbow_flex_l	pro_sup_l	wrist_flex_l	wrist_dev_l
      1.41666667	      4.16663395	     -3.68729494	     96.19341583	      0.22074376	      0.83243185	      0.66845071	      2.62804118	      5.60450812	      8.57504483	      6.71814225	      0.11725370	     34.61103291	    -15.73527749	      0.00000000	      2.15951139	     -5.30744387	      6.81990708	      5.64578391	      0.09853752	     37.68181448	      8.33748124	      0.00000000	     -0.22097819	      1.18712152	     -0.94747452	     -0.41037860	      1.57887162	     -1.00669168	     -0.36304508	      2.88636725	     -1.00669168	     -0.25255598	      2.88636725	     -0.82904020	     -0.20520035	      2.42077819	     -0.76982305	     -0.12626694	      1.83885123	     -0.71060589	     -1.57842514	     13.42895601	     -5.26956903	      0.00000000	      0.00000000	     23.97113599	    -15.98797086	      4.32277164	      8.66370141	    -42.66864909	     64.38400356	      0.71907972	      1.51202398	    -20.55602964	     -6.05990201	      8.15586502	    -34.85536356	     74.88007786	      0.17518296	      2.04110436	    -69.30581988	    -20.83919199
      1.43333333	      5.02791133	     -3.98133948	     96.20335191	      0.21843672	      0.82714005	      0.67091878	      3.43986186	      6.28244071	      8.19440595	      7.04699764	      0.12299331	     36.23564743	    -15.59091267	      0.00000000	      3.15392308	     -5.98245407	      7.02192209	      6.42099374	      0.11206748	     40.01931293	      8.79911719	      0.00000000	     -0.25765458	      1.29259285	     -0.74457422	     -0.47849032	      1.71914849	     -0.79111011	     -0.42330071	      3.14281025	     -0.79111011	     -0.29447342	      3.14281025	     -0.65150244	     -0.23925804	      2.63585534	     -0.60496655	     -0.14722383	      2.00222632	     -0.55843067	     -1.84040089	     14.62206883	     -4.14109844	      0.00000000	      0.00000000	     26.05998945	    -16.57509286	      2.43002780	      6.30389841	    -39.43827451	     63.33766933	      2.52477682	      1.99139817	    -12.48859010	     -4.66193095	      9.17526504	    -31.10680028	     83.07766585	      0.24724227	      2.59603964	    -59.68929120	    -16.24497427
      1.45000000	      5.78350813	     -4.16876983	     96.40379418	      0.21631637	      0.82323002	      0.67335635	      4.13053128	      6.86872276	      7.57972588	      7.41935979	      0.12949226	     37.38559905	    -15.49181799	      0.00000000	      4.17237133	     -6.55853363	      7.40291169	      7.35227216	      0.12832136	     42.03648756	      9.28176085	      0.00000000	     -0.27660467	      1.39141860	     -0.58776566	     -0.51368254	      1.85058674	     -0.62450102	     -0.45443382	      3.38309518	     -0.62450102	     -0.31613148	      3.38309518	     -0.51429496	     -0.25685510	      2.83738081	     -0.47755960	     -0.15805191	      2.15530741	     -0.44082425	     -1.97575952	     15.74000549	     -3.26897629	      0.00000000	      0.00000000	     27.13996789	    -17.41221165	      0.73841299	      4.61589050	    -36.75663704	     63.35740252	      5.45371317	      2.83038496	     -9.94948567	     -3.44309979	     10.05543975	    -28.09493875	     85.96405322	      0.31655510	      2.52788934	    -38.66965656	    -12.83983285
      1.46666667	      6.31277939	     -4.30252956	     96.61387612	      0.21496911	      0.81950489	      0.67509998	      4.64786867	      7.27535423	      6.73810234	      7.74926324	      0.13525016	     38.46893788	    -15.14727965	      0.00000000	      5.06890100	     -7.06388024	      5.94355668	      8.19168991	      0.14297196	     44.21289897	     12.10145680	      0.00000000	     -0.29578966	      1.41651280	     -0.50695589	     -0.54931098	      1.88396202	     -0.53864063	     -0.48595283	      3.44410922	     -0.53864063	     -0.33805800	      3.44410922	     -0.44358640	     -0.27467028	      2.88855290	     -0.41190166	     -0.16901421	      2.19417832	     -0.38021692	     -2.11279596	     16.02387607	     -2.81953657	      0.00000000	      0.00000000	     27.61952319	    -17.31347763	     -2.37852683	      3.87888909	    -33.90808636	     65.62190100	      7.60910724	      3.71719993	     -8.19033687	     -2.24650272	     10.18358557	    -25.71883794	     88.29204031	      0.47165677	      1.80293483	    -24.34818877	     -9.97646230
